:SAMPLES-PER-SECOND 30
:FULLY-SPECIFIED
:DEGREES
201
root  -0.565212 39.3527 -0.578743 83.1046 -83.1132 -90.7892
RightUpLeg  -1.74802 -2.1187 7.19634
RightLeg  19.0738 -26.0112 -5.22378
RightFoot  -8.39954 -0.109032 2.02472
RightToes  -3.1126e-008 1.75238e-005 3.56266e-009
Spine  5.29026 -6.96596 10.4215
Spine1  21.5881 -12.0373 14.6092
HEad  -10.2666 11.4557 -0.087839
LeftShoulder1  1.34442 -5.15657 -8.00492
LeftArm  -59.8996 -41.3857 -7.9276
LeftForeArm  39.5469 -47.3369 -9.28657
LeftHand  -0.645864 -1.49143 11.0557
RightShoulder  2.11806 4.87806 18.8102
RightArm  -19.4864 -15.2151 47.2721
RightForeArm  16.7538 20.6279 4.63991
RightHand  -0.576233 3.77427 -7.5505
LeftUpLeg  -8.93367 11.5916 12.3623
LeftLeg  32.6669 -0.586251 -0.0662213
LeftFoot  -12.0111 0.0428937 -4.96536
LeftToes  4.78349e-008 1.46828e-008 1.33736e-009
202
root  -0.663105 39.4238 -0.647752 81.113 -83.5597 -88.6546
RightUpLeg  -1.49514 -2.06153 6.92894
RightLeg  18.5622 -26.2451 -5.27512
RightFoot  -8.25519 -0.108999 1.96561
RightToes  -3.1126e-008 1.75238e-005 3.56266e-009
Spine  4.19181 -6.78921 9.05576
Spine1  22.2862 -12.3399 15.2981
HEad  -10.0633 11.591 0.363278
LeftShoulder1  1.2943 -4.83735 -8.00022
LeftArm  -56.2964 -41.3904 -9.9293
LeftForeArm  39.3165 -46.7927 -9.10369
LeftHand  -0.663313 -1.27076 11.6992
RightShoulder  2.17732 5.07656 18.9247
RightArm  -17.4831 -13.1825 46.6804
RightForeArm  15.7419 21.9677 4.32808
RightHand  -0.587857 3.89427 -7.61877
LeftUpLeg  -8.43886 11.8882 12.0105
LeftLeg  31.6832 -0.932847 -0.285138
LeftFoot  -11.7986 0.0511035 -4.93135
LeftToes  4.78349e-008 1.46828e-008 1.33736e-009
203
root  -0.789383 39.5033 -0.735837 76.577 -83.9868 -83.9898
RightUpLeg  -1.06506 -2.08087 6.63639
RightLeg  17.8357 -26.6431 -5.21635
RightFoot  -8.0622 -0.108982 1.89405
RightToes  -3.1126e-008 1.75238e-005 3.56266e-009
Spine  3.12747 -6.67841 7.55733
Spine1  22.5135 -12.6863 16.1839
HEad  -9.36109 11.749 1.08193
LeftShoulder1  1.30617 -4.73825 -8.36522
LeftArm  -50.26 -40.5232 -13.0238
LeftForeArm  37.1791 -47.7126 -9.59773
LeftHand  -0.49238 -1.10526 8.8986
RightShoulder  2.23823 5.2657 19.0797
RightArm  -14.4377 -11.3942 45.9434
RightForeArm  15.2319 23.6217 4.27801
RightHand  -0.489133 3.56102 -6.60431
LeftUpLeg  -7.9243 11.8692 11.6479
LeftLeg  30.6504 -1.27658 -0.48372
LeftFoot  -11.5132 0.0605703 -5.04894
LeftToes  4.78349e-008 1.46828e-008 1.33736e-009
204
root  -0.926014 39.6039 -0.831243 75.9437 -84.508 -83.2297
RightUpLeg  -0.489578 -2.00105 6.34017
RightLeg  16.7521 -26.7331 -4.95635
RightFoot  -7.78005 -0.106938 1.74375
RightToes  -3.1126e-008 1.75238e-005 3.56266e-009
Spine  2.03498 -6.43639 6.87435
Spine1  22.061 -12.2882 15.8378
HEad  -7.72129 11.4378 2.14484
LeftShoulder1  1.36818 -5.12149 -8.38391
LeftArm  -41.4716 -38.6399 -17.6664
LeftForeArm  33.7864 -48.822 -10.2798
LeftHand  -0.319874 -1.00927 5.985
RightShoulder  2.38116 5.76672 19.2574
RightArm  -10.9838 -10.2343 45.2672
RightForeArm  14.8227 26.5603 4.92011
RightHand  -0.234515 1.21746 -4.16755
LeftUpLeg  -7.15543 12.0916 11.3051
LeftLeg  29.3541 -1.49021 -0.575935
LeftFoot  -11.0851 0.074916 -5.23761
LeftToes  4.78349e-008 1.46828e-008 1.33736e-009
205
root  -1.09052 39.6865 -0.905111 79.9305 -84.9029 -86.9989
RightUpLeg  -0.0281955 -1.88944 6.17189
RightLeg  15.7093 -26.4755 -4.57171
RightFoot  -7.48926 -0.0969763 1.37061
RightToes  -3.1126e-008 1.75238e-005 3.56266e-009
Spine  0.148604 -6.2245 6.74838
Spine1  22.858 -11.9007 14.8525
HEad  -6.22683 11.1817 3.09182
LeftShoulder1  1.3397 -5.028 -8.20463
LeftArm  -31.9178 -35.9709 -23.1372
LeftForeArm  31.3125 -50.2684 -11.0898
LeftHand  -0.27225 -1.82078 4.55601
RightShoulder  2.37581 5.89325 18.815
RightArm  -9.2909 -7.87186 45.9536
RightForeArm  16.4091 31.5086 5.99235
RightHand  0.0862875 0.2735 1.85887
LeftUpLeg  -6.54423 12.4443 11.1479
LeftLeg  28.419 -1.55167 -0.581418
LeftFoot  -10.7606 0.0926164 -5.49862
LeftToes  4.78349e-008 1.46828e-008 1.33736e-009
206
root  -1.24588 39.7481 -0.961096 92.4 -85.255 -99.5549
RightUpLeg  0.553164 -1.75151 6.01516
RightLeg  14.9997 -25.5918 -4.33066
RightFoot  -7.33028 -0.0903726 1.1585
RightToes  -3.1126e-008 1.75238e-005 3.56266e-009
Spine  -0.975803 -6.03288 6.49635
Spine1  23.1053 -11.4438 14.0551
HEad  -3.63482 11.8739 3.76668
LeftShoulder1  1.50091 -5.70115 -8.88167
LeftArm  -22.0719 -30.698 -27.6497
LeftForeArm  30.4749 -52.0883 -11.9805
LeftHand  -0.276657 -2.38565 4.32225
RightShoulder  2.23863 5.6368 17.9628
RightArm  -5.68699 -2.66722 47.0998
RightForeArm  17.1226 35.9061 7.10817
RightHand  0.240286 -1.13007 6.61168
LeftUpLeg  -5.5488 13.1448 11.067
LeftLeg  27.6375 -1.20013 -0.353549
LeftFoot  -10.5533 0.102402 -5.70105
LeftToes  4.78349e-008 1.46828e-008 1.33736e-009
207
root  -1.39711 39.7865 -1.00108 108.789 -85.0894 -115.976
RightUpLeg  0.956082 -1.64305 5.9177
RightLeg  14.5142 -24.3853 -4.04987
RightFoot  -7.3171 -0.0810924 0.895396
RightToes  -3.1126e-008 1.75238e-005 3.56266e-009
Spine  -2.26589 -5.89901 6.52435
Spine1  23.3982 -11.0493 13.2181
HEad  0.229998 12.6899 4.638
LeftShoulder1  1.71829 -6.10925 -10.6216
LeftArm  -13.2337 -25.2088 -31.7037
LeftForeArm  32.2223 -52.2324 -11.908
LeftHand  -0.364894 -3.27496 5.13917
RightShoulder  2.21151 5.61583 17.699
RightArm  -1.4685 4.57453 47.8876
RightForeArm  17.5933 40.7416 8.51803
RightHand  0.294598 -1.10096 8.1997
LeftUpLeg  -4.63332 13.9714 11.0994
LeftLeg  27.0247 -0.63876 -0.0271306
LeftFoot  -10.5382 0.10478 -5.93887
LeftToes  4.78349e-008 1.46828e-008 1.33736e-009
208
root  -1.55132 39.8255 -1.01095 126.592 -84.1865 -133.777
RightUpLeg  1.3557 -1.53651 5.82872
RightLeg  13.8912 -22.7073 -3.5031
RightFoot  -7.25469 -0.0673289 0.506914
RightToes  -3.1126e-008 1.75238e-005 3.56266e-009
Spine  -3.46785 -5.69208 7.31587
Spine1  23.6563 -10.3989 11.7881
HEad  4.7818 13.4519 5.86975
LeftShoulder1  2.02516 -6.74167 -12.7297
LeftArm  -6.59724 -18.5012 -35.4537
LeftForeArm  37.202 -51.0755 -10.9885
LeftHand  -0.429486 -3.95734 5.57213
RightShoulder  2.3014 5.96262 17.7652
RightArm  1.99223 13.0783 49.005
RightForeArm  17.9177 44.698 9.83503
RightHand  0.226579 -0.221586 5.2715
LeftUpLeg  -3.71805 14.5413 11.1875
LeftLeg  26.5644 0.405084 0.548107
LeftFoot  -10.5919 0.105701 -6.47406
LeftToes  4.78349e-008 1.46828e-008 1.33736e-009
209
root  -1.71023 39.8407 -1.00609 136.964 -82.7501 -144.283
RightUpLeg  1.82518 -1.41146 5.92178
RightLeg  13.4845 -21.0852 -3.08447
RightFoot  -7.25755 -0.0566697 0.208797
RightToes  -3.1126e-008 1.75238e-005 3.56266e-009
Spine  -4.73051 -5.32277 8.67972
Spine1  24.3699 -9.6144 10.2369
HEad  8.85344 13.9116 7.08974
LeftShoulder1  2.33213 -7.2171 -14.9153
LeftArm  -2.35262 -12.3279 -39.1943
LeftForeArm  46.0543 -47.5511 -8.94336
LeftHand  -0.451804 -5.38354 5.26659
RightShoulder  2.23162 5.93473 17.0366
RightArm  4.71559 22.9242 51.7951
RightForeArm  17.9551 46.2202 10.4172
RightHand  0.0526935 0.55164 0.936836
LeftUpLeg  -2.86733 14.8805 11.4466
LeftLeg  26.5359 1.63743 1.21786
LeftFoot  -10.7691 0.0993444 -6.96423
LeftToes  4.78349e-008 1.46828e-008 1.33736e-009
210
root  -1.81609 39.83 -0.976804 144.22 -80.9201 -151.651
RightUpLeg  1.97484 -1.12119 6.1566
RightLeg  13.5306 -19.368 -2.9266
RightFoot  -7.30168 -0.0534326 0.110381
RightToes  -3.1126e-008 1.75238e-005 3.56266e-009
Spine  -5.90022 -4.88117 11.0122
Spine1  25.3923 -8.52122 7.86888
HEad  11.9714 14.4958 8.02819
LeftShoulder1  2.71379 -7.53089 -17.9989
LeftArm  -1.24193 -7.53496 -41.208
LeftForeArm  61.3233 -42.3111 -6.38893
LeftHand  -0.199986 -9.25859 2.04408
RightShoulder  2.11301 5.98795 15.5342
RightArm  6.51435 33.041 55.8867
RightForeArm  18.4307 46.5268 10.5055
RightHand  -0.0353092 1.21659 -0.776347
LeftUpLeg  -2.32646 15.3645 11.7829
LeftLeg  26.9835 2.8959 1.93092
LeftFoot  -10.8912 0.0943752 -7.44472
LeftToes  4.78349e-008 1.46828e-008 1.33736e-009
